<svg xmlns="http://www.w3.org/2000/svg" width="112" height="232" fill="none"><path fill="#F2F2F2" d="M56 231.5a61.6 61.6 0 0 1-30.9-7 44 44 0 0 1-18.5-20.1 72.7 72.7 0 0 1-6.1-31.1v-7.6h29.7v5.1c.1 6.7.9 12.7 2.2 18.2a26 26 0 0 0 7.6 12.8 24 24 0 0 0 16 4.8c7.2 0 12.7-1.7 16.4-5 3.8-3.6 6.3-8.5 7.6-14.9a109 109 0 0 0 2-21.8 56 56 0 0 0-6.8-29.1c-4.3-7.7-12-11.9-23-12.6-.5-.2-1.2-.3-2.2-.3h-2v-30h4c10.6-.4 18.3-3.2 23-8.4 4.6-5.2 7-13.9 7-26 0-10.3-1.8-18.5-5.4-24.7-3.3-6.1-10.1-9.2-20.4-9.2-10.3 0-17 3.5-20.4 10.4a63.4 63.4 0 0 0-5.6 26v4.8H.5v-7.6c0-12.1 2-22.5 6.1-31a44.3 44.3 0 0 1 18.5-20c8.4-4.6 18.8-7 31.1-7 12.5 0 22.9 2.4 31 7a44 44 0 0 1 18.6 20.2c4 8.6 6.1 19 6.1 31 0 13.7-3 24.6-9 32.8A43.2 43.2 0 0 1 79.5 108c7 2 12.7 5.6 17.4 10.7 4.9 5 8.6 11.5 11.2 19.3 2.6 7.7 4 16.6 4 26.9 0 13.4-2 25.2-5.7 35.3a47.7 47.7 0 0 1-17.9 23.2c-8.2 5.4-19 8.1-32.5 8.1Z"/></svg>